<svg width="30.779221" height="42.000000" viewBox="0 0 30.7792 42" fill="none" xmlns="http://www.w3.org/2000/svg" xmlns:xlink="http://www.w3.org/1999/xlink">
	<defs/>
	<path id="Vector" d="M15.3896 0C11.308 0 7.39363 1.64209 4.50752 4.56445C1.62141 7.4873 0 11.4517 0 15.585C0 24.1934 15.3896 42 15.3896 42C15.3896 42 30.7792 24.1934 30.7792 15.585C30.7792 11.4517 29.1578 7.4873 26.2717 4.56445C23.3856 1.64209 19.4712 0 15.3896 0ZM15.3896 22.354C13.4604 22.354 11.6102 21.5776 10.2461 20.1963C8.8819 18.8149 8.11552 16.9409 8.11552 14.9873C8.11761 13.0352 8.88492 11.1636 10.2488 9.78369C11.6128 8.4043 13.4618 7.62891 15.3896 7.62891C17.3175 7.62891 19.1665 8.4043 20.5304 9.78369C21.8943 11.1636 22.6616 13.0352 22.6637 14.9873C22.6637 16.9409 21.8973 18.8149 20.5332 20.1963C19.169 21.5776 17.3188 22.354 15.3896 22.354Z" fill="#403837" fill-opacity="1.000000" fill-rule="evenodd"/>
</svg>
