<svg width="185.000000" height="24.000000" viewBox="0 0 185 24" fill="none" xmlns="http://www.w3.org/2000/svg" xmlns:xlink="http://www.w3.org/1999/xlink">
	<defs>
		<clipPath id="clip2_178">
			<rect id="Layer_1" width="185.000000" height="24.000000" fill="white" fill-opacity="0"/>
		</clipPath>
	</defs>
	<rect id="Layer_1" width="185.000000" height="24.000000" fill="#FFFFFF" fill-opacity="0"/>
	<g clip-path="url(#clip2_178)">
		<path id="Vector" d="M16.4725 11.2944C16.9615 11.8553 17.4863 12.3674 17.8954 12.9641C20.6909 17.0286 18.272 22.6246 13.3918 23.4212C12.8563 23.5102 12.3145 23.5564 11.7716 23.5594C8.10583 23.5708 4.43678 23.5594 0.777496 23.5594C0.53627 23.5594 0.288513 23.5383 0.00489807 23.5253L0.00489807 9.91571C0.306442 9.90271 0.596588 9.87994 0.885086 9.87833C3.92499 9.87833 6.96651 9.88971 10.0129 9.87833C12.0895 9.86533 13.2859 8.4151 12.8621 6.48367C12.5915 5.25293 11.6983 4.5701 10.3063 4.56686C7.18491 4.56686 4.06352 4.56686 0.940506 4.56686L0.00653076 4.56686L0.00653076 0.482849L0.891586 0.482849C4.12219 0.482849 7.35281 0.482849 10.5834 0.482849C13.3625 0.473083 15.5564 1.59653 16.9077 4.03522C18.2589 6.47391 18.0487 8.86707 16.5197 11.1708C16.4991 11.21 16.4832 11.2515 16.4725 11.2944ZM4.9926 19.4494C7.22403 19.4494 9.36256 19.4868 11.4978 19.438C13.2077 19.399 14.3193 18.2479 14.2688 16.6953C14.2215 15.1801 13.0691 14.1249 11.4082 14.1135C9.48317 14.0989 7.55817 14.1135 5.6348 14.1135C5.4278 14.1135 5.22243 14.1558 4.98282 14.1802L4.9926 19.4494Z" fill="#FFFFFF" fill-opacity="1.000000" fill-rule="nonzero"/>
		<path id="Vector" d="M162.189 23.5594C160.658 23.5594 159.121 23.5773 157.586 23.535C157.411 23.535 157.181 23.2196 157.097 23.0034C156.576 21.7841 156.077 20.556 155.599 19.3194C155.436 18.9162 155.248 18.7227 154.784 18.7276C151.932 18.7482 149.081 18.7482 146.23 18.7276C145.729 18.7276 145.511 18.9259 145.343 19.3567C144.865 20.5945 144.364 21.822 143.84 23.0392C143.75 23.2489 143.501 23.535 143.32 23.5399C141.807 23.5806 140.295 23.5627 138.645 23.5627C139.24 22.0702 139.786 20.6964 140.334 19.3356C142.789 13.2958 145.255 7.2608 147.688 1.21286C147.902 0.681213 148.128 0.453613 148.727 0.476379C150.081 0.523529 151.437 0.490997 152.981 0.490997L147.326 14.4403L153.584 14.4403L150.943 7.84448C152.639 7.84448 154.174 7.8331 155.711 7.86237C155.859 7.86237 156.07 8.08997 156.136 8.25742C158.171 13.2714 160.196 18.2891 162.211 23.3107C162.223 23.3546 162.198 23.4131 162.189 23.5594Z" fill="#FFFFFF" fill-opacity="1.000000" fill-rule="nonzero"/>
		<path id="Vector" d="M58.2307 19.3567L58.2307 23.6618C54.1786 24.7755 48.917 23.0733 45.9293 18.6219C43.0915 14.3948 43.367 8.43628 46.6367 4.43195C50.0222 0.286163 55.5086 -1.10715 60.4556 0.923462C64.7473 2.6842 68.1083 7.76645 67.722 11.9789L63.0521 11.9789C62.6055 10.6165 62.3284 9.24591 61.7286 8.0347C60.0823 4.7132 56.4475 3.37515 53.2299 4.89203C50.8225 6.03009 49.5364 8.07208 49.0882 10.6587C48.5242 13.9103 50.045 17.3245 52.7817 18.8934C54.2764 19.7534 55.8607 20.0526 57.5494 19.5242C57.7515 19.4543 57.9617 19.4201 58.2307 19.3567Z" fill="#FFFFFF" fill-opacity="1.000000" fill-rule="nonzero"/>
		<path id="Vector" d="M56.5632 12.0325L61.3472 12.0325C61.7302 13.2925 61.9666 14.5834 62.5061 15.7312C63.533 17.9098 65.2428 19.3746 67.722 19.6754C70.493 20.0119 72.55 18.7584 74.0659 16.5408C76.5499 12.9088 75.5002 7.67862 71.8312 5.25296C70.237 4.19781 68.7864 4.03522 66.1116 4.64978C66.1116 3.26135 66.0969 1.89569 66.1344 0.531647C66.1344 0.404816 66.4604 0.206482 66.6462 0.17395C73.4171 -0.934845 79.7235 4.03522 80.3559 10.8766C80.9655 17.4838 76.0234 23.961 68.5761 24C61.5835 24.0374 57.2087 18.5276 56.6773 13.3494C56.6284 12.9478 56.6007 12.5463 56.5632 12.0325Z" fill="#FFFFFF" fill-opacity="1.000000" fill-rule="nonzero"/>
		<path id="Vector" d="M121.963 23.283L107.541 0.48288C109.008 0.48288 110.326 0.580414 111.625 0.455231C112.975 0.326782 113.744 0.780396 114.45 1.97046C116.667 5.69354 119.048 9.31744 121.368 12.9803C121.54 13.2519 121.725 13.5153 121.963 13.8745C122.88 12.4325 123.756 11.0717 124.616 9.70599C126.463 6.79907 128.306 3.8927 130.145 0.986877C130.275 0.78363 130.513 0.510498 130.707 0.507263C132.543 0.469849 134.38 0.484497 136.37 0.484497L121.963 23.283Z" fill="#FFFFFF" fill-opacity="1.000000" fill-rule="nonzero"/>
		<path id="Vector" d="M27.3851 13.9753L27.3851 23.4927L22.4447 23.4927L22.4447 9.87671L23.395 9.87671C26.9271 9.87671 30.4593 9.88809 33.9898 9.87671C36.0631 9.86694 37.1715 8.40375 36.6613 6.40237C36.3565 5.20578 35.4926 4.56848 34.1251 4.56522C30.5391 4.55872 26.9532 4.55872 23.3672 4.56522L22.4431 4.56522L22.4431 0.531616C22.6647 0.515381 22.8995 0.484467 23.1326 0.484467C26.9891 0.484467 30.8472 0.466583 34.7053 0.484467C38.7803 0.505615 41.8283 3.80112 41.5414 7.83957C41.3035 11.1968 38.301 13.8957 34.6727 13.964C32.5815 14.0046 30.4886 13.9737 28.3973 13.9737L27.3851 13.9753Z" fill="#FFFFFF" fill-opacity="1.000000" fill-rule="nonzero"/>
		<path id="Vector" d="M84.1733 0.512115L89.1088 0.512115L89.1088 13.6274L89.3045 13.6924C89.6468 13.1706 89.9972 12.6536 90.3313 12.1268C92.6763 8.41998 95.0246 4.71317 97.3761 1.00635C97.5146 0.788513 97.7917 0.518616 98.0101 0.518616C99.8227 0.477966 101.635 0.49585 103.598 0.49585C102.595 2.09076 101.669 3.57349 100.735 5.0481C98.9425 7.88672 97.1299 10.7173 95.3565 13.5721C95.0697 14.0339 94.7583 14.1704 94.2433 14.1607C92.5888 14.1314 90.9344 14.1509 89.1627 14.1509L89.1627 23.561C87.5637 23.561 86.0771 23.574 84.5987 23.5399C84.4569 23.5399 84.2727 23.2716 84.1945 23.0895C84.1163 22.9075 84.1766 22.7172 84.1766 22.527L84.1766 0.512115L84.1733 0.512115Z" fill="#FFFFFF" fill-opacity="1.000000" fill-rule="nonzero"/>
		<path id="Vector" d="M164.599 0.48288C166.534 0.48288 168.324 0.466614 170.112 0.50238C170.342 0.50238 170.645 0.738129 170.779 0.949463C173.861 5.79327 176.933 10.6436 179.993 15.5003C181.526 17.926 183.06 20.3512 184.596 22.7758C184.725 22.979 184.834 23.192 185 23.4863C184.726 23.5188 184.529 23.5611 184.332 23.5627C182.892 23.5627 181.453 23.5318 180.016 23.5806C179.395 23.6017 179.038 23.4017 178.712 22.8782C176.358 19.1129 173.973 15.367 171.602 11.6131C169.386 8.11111 167.174 4.60968 164.964 1.1088C164.865 0.946228 164.777 0.783661 164.599 0.48288Z" fill="#FFFFFF" fill-opacity="1.000000" fill-rule="nonzero"/>
		<path id="Vector" d="M107.601 9.91736L112.509 9.91736L112.509 23.5058L107.607 23.5058L107.601 9.91736Z" fill="#FFFFFF" fill-opacity="1.000000" fill-rule="nonzero"/>
		<path id="Vector" d="M131.397 9.92224L136.34 9.92224L136.34 23.4928L131.397 23.4928L131.397 9.92224Z" fill="#FFFFFF" fill-opacity="1.000000" fill-rule="nonzero"/>
		<path id="Vector" d="M169.519 23.522L164.629 23.522L164.629 9.94986L169.519 9.94986L169.519 23.522Z" fill="#FFFFFF" fill-opacity="1.000000" fill-rule="nonzero"/>
		<path id="Vector" d="M184.964 14.0956L180.105 14.0956L180.105 0.552765L184.964 0.552765L184.964 14.0956Z" fill="#FFFFFF" fill-opacity="1.000000" fill-rule="nonzero"/>
		<path id="Vector" d="M33.2221 14.8224C34.8765 14.8224 36.482 14.811 38.0761 14.837C38.1874 14.8447 38.2954 14.8781 38.3916 14.9345C38.4878 14.9909 38.5695 15.0689 38.6303 15.1622C39.799 17.8951 40.94 20.6427 42.0858 23.3871C42.0858 23.4034 42.0646 23.4342 42.0027 23.5659C40.3858 23.5659 38.7151 23.5773 37.046 23.5497C36.896 23.5497 36.6841 23.3286 36.6124 23.1611C35.4714 20.5035 34.3424 17.8393 33.2253 15.1687C33.2081 15.054 33.207 14.9374 33.2221 14.8224Z" fill="#FFFFFF" fill-opacity="1.000000" fill-rule="nonzero"/>
		<path id="Vector" d="M104.175 23.5578C102.509 23.5578 100.838 23.5578 99.1674 23.5432C99.0798 23.5258 98.9974 23.4884 98.9267 23.434C98.856 23.3795 98.7989 23.3095 98.7599 23.2294C97.6189 20.5143 96.4779 17.7927 95.3516 15.0711C95.3353 15.0305 95.3647 14.9687 95.3858 14.8257C97.0435 14.8257 98.7159 14.8159 100.387 14.8419C100.538 14.8419 100.757 15.0565 100.825 15.2191C101.966 17.9114 103.074 20.6118 104.191 23.3107C104.209 23.3546 104.186 23.4131 104.175 23.5578Z" fill="#FFFFFF" fill-opacity="1.000000" fill-rule="nonzero"/>
	</g>
</svg>
