<svg width="185" height="24" viewBox="0 0 185 24" fill="none" xmlns="http://www.w3.org/2000/svg">
<g clip-path="url(#clip0_195_272)">
<path d="M16.4725 11.2944C16.9615 11.8553 17.4863 12.3674 17.8954 12.9641C20.6908 17.0286 18.272 22.6246 13.3918 23.4212C12.8563 23.5102 12.3145 23.5564 11.7716 23.5594C8.10583 23.5708 4.43677 23.5594 0.777487 23.5594C0.536252 23.5594 0.288498 23.5383 0.00488281 23.5253V9.91572C0.306427 9.90271 0.596566 9.87995 0.885071 9.87833C3.92497 9.87833 6.96649 9.88971 10.0129 9.87833C12.0895 9.86532 13.2859 8.41511 12.8621 6.48366C12.5915 5.25294 11.6983 4.5701 10.3063 4.56685C7.18489 4.56685 4.06351 4.56685 0.940484 4.56685H0.00651437V0.482851H0.891577C4.12218 0.482851 7.35279 0.482851 10.5834 0.482851C13.3625 0.473096 15.5564 1.59652 16.9077 4.03522C18.2589 6.47391 18.0486 8.86708 16.5197 11.1708C16.499 11.21 16.4832 11.2515 16.4725 11.2944ZM4.99259 19.4494C7.22402 19.4494 9.36254 19.4868 11.4978 19.438C13.2076 19.399 14.3193 18.2479 14.2688 16.6953C14.2215 15.18 13.0691 14.1249 11.4081 14.1135C9.48315 14.0989 7.55815 14.1135 5.63479 14.1135C5.42778 14.1135 5.2224 14.1558 4.9828 14.1802L4.99259 19.4494Z" fill="#403837"/>
<path d="M162.189 23.5594C160.658 23.5594 159.121 23.5773 157.586 23.535C157.411 23.535 157.182 23.2196 157.097 23.0034C156.576 21.7841 156.077 20.556 155.599 19.3193C155.436 18.9161 155.248 18.7227 154.784 18.7276C151.932 18.7481 149.081 18.7481 146.23 18.7276C145.729 18.7276 145.511 18.9259 145.343 19.3567C144.865 20.5945 144.364 21.822 143.84 23.0392C143.751 23.2489 143.501 23.535 143.32 23.5399C141.808 23.5806 140.295 23.5627 138.646 23.5627C139.24 22.0702 139.786 20.6964 140.334 19.3356C142.789 13.2958 145.255 7.26082 147.689 1.21286C147.902 0.68122 148.129 0.453609 148.727 0.47637C150.081 0.523518 151.438 0.491002 152.981 0.491002L147.327 14.4403H153.584L150.944 7.84448C152.639 7.84448 154.174 7.8331 155.711 7.86236C155.86 7.86236 156.07 8.08997 156.137 8.25743C158.171 13.2714 160.196 18.2891 162.212 23.3107C162.223 23.3546 162.199 23.4131 162.189 23.5594Z" fill="#403837"/>
<path d="M58.2308 19.3567V23.6618C54.1787 24.7755 48.9172 23.0733 45.9295 18.6219C43.0917 14.3948 43.3671 8.43627 46.6369 4.43193C50.0223 0.286151 55.5088 -1.10716 60.4558 0.923463C64.7475 2.6842 68.1085 7.76644 67.7222 11.9789H63.0523C62.6057 10.6165 62.3286 9.24591 61.7287 8.03469C60.0825 4.71319 56.4476 3.37516 53.2301 4.89203C50.8226 6.03009 49.5366 8.07209 49.0883 10.6587C48.5244 13.9103 50.0451 17.3245 52.7818 18.8934C54.2765 19.7534 55.8609 20.0526 57.5495 19.5242C57.7516 19.4543 57.9619 19.4201 58.2308 19.3567Z" fill="#403837"/>
<path d="M56.5635 12.0325H61.3474C61.7305 13.2925 61.9668 14.5834 62.5063 15.7312C63.5332 17.9098 65.2431 19.3746 67.7222 19.6754C70.4932 20.0119 72.5502 18.7584 74.0661 16.5408C76.5502 12.9088 75.5005 7.67863 71.8314 5.25295C70.2373 4.1978 68.7866 4.03522 66.1118 4.64977C66.1118 3.26134 66.0972 1.89568 66.1347 0.531633C66.1347 0.404821 66.4607 0.206474 66.6465 0.173958C73.4174 -0.934835 79.7237 4.03522 80.3561 10.8766C80.9658 17.4838 76.0237 23.961 68.5763 24C61.5838 24.0374 57.2089 18.5276 56.6776 13.3494C56.6287 12.9478 56.601 12.5463 56.5635 12.0325Z" fill="#403837"/>
<path d="M121.963 23.283L107.541 0.482866C109.008 0.482866 110.326 0.580414 111.625 0.455227C112.975 0.326789 113.744 0.780387 114.45 1.97047C116.667 5.69354 119.048 9.31744 121.368 12.9804C121.54 13.2519 121.725 13.5152 121.963 13.8745C122.88 12.4325 123.755 11.0717 124.616 9.70601C126.463 6.79908 128.306 3.8927 130.145 0.986863C130.275 0.783638 130.513 0.510504 130.707 0.507253C132.543 0.46986 134.38 0.484492 136.37 0.484492L121.963 23.283Z" fill="#403837"/>
<path d="M27.385 13.9753V23.4927H22.4445V9.8767H23.3948C26.9269 9.8767 30.4591 9.88809 33.9896 9.8767C36.0629 9.86695 37.1713 8.40373 36.6611 6.40238C36.3563 5.20579 35.4924 4.56848 34.1249 4.56523C30.5389 4.55873 26.953 4.55873 23.3671 4.56523H22.4429V0.531628C22.6645 0.51537 22.8993 0.48448 23.1324 0.48448C26.9889 0.48448 30.847 0.466597 34.7052 0.48448C38.7801 0.505616 41.8281 3.8011 41.5412 7.83958C41.3033 11.1969 38.3009 13.8957 34.6725 13.964C32.5813 14.0046 30.4884 13.9737 28.3972 13.9737L27.385 13.9753Z" fill="#403837"/>
<path d="M84.1732 0.51212H89.1088V13.6274L89.3044 13.6924C89.6467 13.1706 89.9971 12.6536 90.3312 12.1268C92.6762 8.41999 95.0245 4.71318 97.376 1.00636C97.5145 0.788505 97.7916 0.518623 98.01 0.518623C99.8226 0.477978 101.635 0.495862 103.598 0.495862C102.595 2.09077 101.669 3.57349 100.735 5.04809C98.9424 7.88673 97.1299 10.7172 95.3564 13.5721C95.0696 14.0339 94.7582 14.1704 94.2432 14.1607C92.5887 14.1314 90.9343 14.1509 89.1626 14.1509V23.561C87.5636 23.561 86.077 23.574 84.5986 23.5399C84.4568 23.5399 84.2727 23.2716 84.1944 23.0895C84.1162 22.9075 84.1765 22.7172 84.1765 22.527V0.51212H84.1732Z" fill="#403837"/>
<path d="M164.599 0.482874C166.534 0.482874 168.324 0.466616 170.112 0.502383C170.342 0.502383 170.645 0.738124 170.778 0.949477C173.861 5.79326 176.933 10.6436 179.993 15.5003C181.526 17.926 183.06 20.3512 184.596 22.7758C184.724 22.979 184.834 23.192 185 23.4863C184.726 23.5188 184.529 23.561 184.332 23.5627C182.892 23.5627 181.453 23.5318 180.015 23.5806C179.394 23.6017 179.037 23.4017 178.711 22.8782C176.358 19.1129 173.973 15.367 171.601 11.6131C169.386 8.11111 167.173 4.60969 164.964 1.10881C164.865 0.946225 164.777 0.783646 164.599 0.482874Z" fill="#403837"/>
<path d="M107.601 9.91736H112.509V23.5058H107.608L107.601 9.91736Z" fill="#403837"/>
<path d="M131.397 9.92224H136.341V23.4928H131.397V9.92224Z" fill="#403837"/>
<path d="M169.518 23.522H164.628V9.94986H169.518V23.522Z" fill="#403837"/>
<path d="M184.964 14.0956H180.105V0.552765H184.964V14.0956Z" fill="#403837"/>
<path d="M33.2219 14.8224C34.8763 14.8224 36.4819 14.811 38.076 14.837C38.1873 14.8447 38.2953 14.8781 38.3915 14.9345C38.4876 14.9909 38.5693 15.0689 38.6302 15.1622C39.7989 17.8951 40.9398 20.6427 42.0857 23.3871C42.0857 23.4033 42.0645 23.4342 42.0026 23.5659C40.3856 23.5659 38.7149 23.5773 37.0458 23.5497C36.8959 23.5497 36.684 23.3286 36.6123 23.1611C35.4713 20.5035 34.3422 17.8393 33.2252 15.1687C33.208 15.054 33.2069 14.9374 33.2219 14.8224Z" fill="#403837"/>
<path d="M104.174 23.5578C102.509 23.5578 100.838 23.5578 99.1672 23.5432C99.0796 23.5258 98.9972 23.4884 98.9265 23.434C98.8558 23.3795 98.7987 23.3095 98.7597 23.2294C97.6187 20.5143 96.4777 17.7927 95.3514 15.0711C95.3351 15.0305 95.3644 14.9687 95.3856 14.8256C97.0433 14.8256 98.7157 14.8159 100.386 14.8419C100.538 14.8419 100.756 15.0565 100.825 15.2191C101.966 17.9114 103.074 20.6119 104.191 23.3107C104.209 23.3546 104.186 23.4131 104.174 23.5578Z" fill="#403837"/>
</g>
<defs>
<clipPath id="clip0_195_272">
<rect width="185" height="24" fill="white"/>
</clipPath>
</defs>
</svg>
