<svg width="18" height="18" viewBox="0 0 18 18" fill="none" xmlns="http://www.w3.org/2000/svg">
<path d="M17.25 1.5V16.5C17.2495 16.8977 17.0914 17.279 16.8102 17.5602C16.529 17.8414 16.1477 17.9995 15.75 18H12.375C11.9773 17.9995 11.596 17.8414 11.3148 17.5602C11.0336 17.279 10.8755 16.8977 10.875 16.5V1.5C10.8755 1.10231 11.0336 0.721048 11.3148 0.439842C11.596 0.158636 11.9773 0.000454817 12.375 0H15.75C16.1477 0.000454817 16.529 0.158636 16.8102 0.439842C17.0914 0.721048 17.2495 1.10231 17.25 1.5ZM5.625 0H2.25C1.85231 0.000454817 1.47105 0.158636 1.18984 0.439842C0.908636 0.721048 0.750455 1.10231 0.75 1.5V16.5C0.750455 16.8977 0.908636 17.279 1.18984 17.5602C1.47105 17.8414 1.85231 17.9995 2.25 18H5.625C6.02269 17.9995 6.40395 17.8414 6.68516 17.5602C6.96636 17.279 7.12455 16.8977 7.125 16.5V1.5C7.12455 1.10231 6.96636 0.721048 6.68516 0.439842C6.40395 0.158636 6.02269 0.000454817 5.625 0Z" fill="#fff"/>
</svg>
